<svg width="41" height="40" viewBox="0 0 41 40" fill="none" xmlns="http://www.w3.org/2000/svg">
<path d="M32.6686 27.364C30.2207 29.4997 28.2623 34.127 28.2623 34.127C28.2623 34.127 25.1912 29.0547 22.5207 27.3195C18.2924 24.6053 16.4675 24.5609 16.4675 24.5609V26.6966C16.4675 26.6966 19.9392 27.2305 21.675 28.7433C25.3247 31.9023 28.2623 36.9746 28.2623 36.9746C28.2623 36.9746 30.8883 31.1459 33.4253 29.1437C36.9859 26.3851 40.057 26.6966 40.057 26.6966V24.5609C40.057 24.5164 35.6507 24.7833 32.6686 27.364Z" fill="#00939F"/>
<path d="M16.4684 33.3703C13.6199 31.7686 8.5459 31.4571 8.5459 31.4571C8.5459 31.4571 12.4181 26.9632 13.2193 23.8931C14.4655 19.0878 13.8869 17.3525 13.8869 17.3525L11.8395 18.0644C11.8395 18.0644 12.4181 21.4905 11.5725 23.5817C9.74763 27.9866 5.78638 32.3915 5.78638 32.3915C5.78638 32.3915 12.2846 32.9699 14.9996 34.6607C18.8274 37.0633 19.5395 39.9999 19.5395 39.9999L21.5869 39.288C21.5869 39.3325 19.8956 35.3281 16.4684 33.3703Z" fill="#00939F"/>
<path d="M13.4861 14.1492C18.5155 13.7488 19.9843 12.6364 19.9843 12.6364L18.6491 10.9457C18.6491 10.9457 15.578 12.5919 13.2635 12.4585C8.41211 12.1915 2.89305 9.9668 2.89305 9.9668C2.89305 9.9668 4.45085 16.1959 3.69421 19.266C2.626 23.6709 0 25.2727 0 25.2727L1.33526 26.9635C1.33526 26.9635 4.67339 24.0714 5.38553 20.2449C5.96414 17.0858 4.62888 12.236 4.62888 12.236C4.62888 12.236 10.237 14.4162 13.4861 14.1492Z" fill="#00939F"/>
<path d="M14.4206 5.69522C17.6697 5.20578 21.8535 2.40267 21.8535 2.40267C21.8535 2.40267 21.5865 8.27586 22.9217 11.2125C24.9691 15.7508 26.4824 16.7742 26.4824 16.7742L27.6841 14.9944C27.6841 14.9944 25.0581 12.6808 24.435 10.4561C23.0997 5.87319 23.4558 0 23.4558 0C23.4558 0 17.9813 3.47052 14.7767 3.78198C10.2368 4.22692 7.83332 2.31368 7.83332 2.31368L6.63159 4.13793C6.63159 4.09344 10.5038 6.27364 14.4206 5.69522Z" fill="#00939F"/>
<path d="M26.7055 24.6939C26.7055 24.6939 28.0853 21.4904 29.9991 20.2001C34.0049 17.4859 39.7465 15.8842 39.7465 15.8842C39.7465 15.8842 34.628 11.9242 33.2928 9.0321C31.4234 4.98316 32.4471 2.09106 32.4471 2.09106L30.3107 1.55713C30.3107 1.55713 29.465 5.82854 31.2899 9.29906C32.8032 12.1467 36.8534 15.1723 36.8534 15.1723C36.8534 15.1723 31.1564 16.863 28.7529 19.0432C25.0587 22.4248 24.5691 24.16 24.5691 24.16L26.7055 24.6939Z" fill="#00939F"/>
</svg>
